<?xml version="1.0" encoding="UTF-8" standalone="no"?>
<svg
   xmlns:dc="http://purl.org/dc/elements/1.1/"
   xmlns:cc="http://creativecommons.org/ns#"
   xmlns:rdf="http://www.w3.org/1999/02/22-rdf-syntax-ns#"
   xmlns:svg="http://www.w3.org/2000/svg"
   xmlns="http://www.w3.org/2000/svg"
   xmlns:sodipodi="http://sodipodi.sourceforge.net/DTD/sodipodi-0.dtd"
   xmlns:inkscape="http://www.inkscape.org/namespaces/inkscape"
   width="63"
   height="63"
   fill="none"
   version="1.1"
   id="svg8"
   sodipodi:docname="pipIcon.svg"
   inkscape:version="0.92.4 (5da689c313, 2019-01-14)">
  <metadata
     id="metadata14">
    <rdf:RDF>
      <cc:Work
         rdf:about="">
        <dc:format>image/svg+xml</dc:format>
        <dc:type
           rdf:resource="http://purl.org/dc/dcmitype/StillImage" />
      </cc:Work>
    </rdf:RDF>
  </metadata>
  <defs
     id="defs12" />
  <sodipodi:namedview
     pagecolor="#ffffff"
     bordercolor="#666666"
     borderopacity="1"
     objecttolerance="10"
     gridtolerance="10"
     guidetolerance="10"
     inkscape:pageopacity="0"
     inkscape:pageshadow="2"
     inkscape:window-width="1291"
     inkscape:window-height="984"
     id="namedview10"
     showgrid="false"
     inkscape:zoom="3.7460317"
     inkscape:cx="31.5"
     inkscape:cy="31.5"
     inkscape:window-x="1939"
     inkscape:window-y="200"
     inkscape:window-maximized="0"
     inkscape:current-layer="svg8" />
  <path
     d="M42 0H21C9.402 0 0 9.402 0 21v21c0 11.598 9.402 21 21 21h21c11.598 0 21-9.402 21-21V21C63 9.402 53.598 0 42 0z"
     fill="#41B178"
     fill-opacity=".1"
     id="path2"
     style="fill:#ff6e41;fill-opacity:0.627451" />
  <g
     style="fill:#000000"
     id="g847"
     transform="matrix(2,0,0,2,7.4999999,8.3008474)">
    <path
       id="path833"
       d="M 0,0 H 24 V 24 H 0 Z"
       inkscape:connector-curvature="0"
       style="fill:none" />
    <path
       id="path835"
       d="m 19,7 h -8 v 6 h 8 z M 21,3 H 3 C 1.9,3 1,3.9 1,5 v 14 c 0,1.1 0.9,1.98 2,1.98 h 18 c 1.1,0 2,-0.88 2,-1.98 V 5 C 23,3.9 22.1,3 21,3 Z m 0,16.01 H 3 V 4.98 h 18 z"
       inkscape:connector-curvature="0" />
  </g>
</svg>
